# xmcd CD database file
#
# Track frame offsets:
#	150
#	30199
#	57051
#	75976
#	99925
#	119832
#	136091
#	146400
#	168286
#	182725
#	199041
#	221332
#	242822
#	260096
#	273302
#	293610
#
# Disc length: 4219 seconds
#
# Revision: 1
# Processed by: cddbd v1.5.1PL2 Copyright (c) Steve Scherf et al.
# Submitted via: CDex 1.51
#
DISCID=d8107910
DTITLE=Sting - ... All This Time
DYEAR=2001
DGENRE=Jazz
TTITLE0=Fragile
TTITLE1=A Thousand Years
TTITLE2=Perfect Love... Gone Wrong
TTITLE3=All This Time
TTITLE4=The Hounds of Winter
TTITLE5=Mad About You
TTITLE6=Don't Stand So Close To Me
TTITLE7=When We Dance
TTITLE8=Dienda
TTITLE9=Roxanne
TTITLE10=(If You Love Somebody) Set Them Free
TTITLE11=Brand New Day
TTITLE12=Fields of Gold
TTITLE13=Moon Over Bourbon Street
TTITLE14=If I Ever Lose My Faith In You
TTITLE15=Every Breath You Take
EXTD=YEAR: 2001
EXTT0=
EXTT1=
EXTT2=
EXTT3=
EXTT4=
EXTT5=
EXTT6=
EXTT7=
EXTT8=
EXTT9=
EXTT10=
EXTT11=
EXTT12=
EXTT13=
EXTT14=
EXTT15=
PLAYORDER=
